# xmcd CD database file
#
# Track frame offsets:
#	150
#	17078
#	33843
#	50132
#	66080
#	82049
#	101056
#	116857
#	135479
#	150113
#	167837
#	184281
#
# Disc length: 2665 seconds
#
# Revision: 0
# Processed by: cddbd v1.5.2PL0 Copyright (c) Steve Scherf et al.
# Submitted via: CDex 1.70beta2
#
DISCID=9d0a670c
DTITLE=The Jeffersons - Vol. 1
DYEAR=2011
DGENRE=Country
TTITLE0=Find the Sun
TTITLE1=Crazy on Me
TTITLE2=Beautiful Somewhere
TTITLE3=Who Lied to You
TTITLE4=One Headlight
TTITLE5=Almost Like We Meant To
TTITLE6=Take My Heart
TTITLE7=Alcatraz
TTITLE8=Act of Defiance
TTITLE9=Thoughtless Day
TTITLE10=Still
TTITLE11=What a World
EXTD=YEAR: 2011
EXTT0=
EXTT1=
EXTT2=
EXTT3=
EXTT4=
EXTT5=
EXTT6=
EXTT7=
EXTT8=
EXTT9=
EXTT10=
EXTT11=
PLAYORDER=
